<?xml version="1.0" encoding="UTF-8"?>
<svg id="_图层_1" data-name="图层 1" xmlns="http://www.w3.org/2000/svg" viewBox="0 0 365.61 420.01">
  <path d="M178.5,1.28c-1.58,.72-7.24,3.87-12.55,7.03s-17.42,10.18-26.88,15.63-29.97,17.35-45.52,26.52c-15.56,9.1-34.27,20.07-41.58,24.37-7.31,4.23-16.49,9.61-20.43,11.97-3.94,2.29-11.97,7.03-17.85,10.47s-11.33,7.17-12.19,8.24l-1.51,2.01v205.31l1.58,2.15c.79,1.15,4.37,3.8,7.89,5.81,3.44,2.01,10.32,6.02,15.27,8.89s13.84,8.03,19.71,11.47c11.69,6.74,26.45,15.41,30.47,17.71,7.81,4.66,51.54,30.04,65.59,38.21,9.1,5.23,21.65,12.55,27.96,16.27,9.32,5.45,11.97,6.67,14.34,6.67s5.45-1.51,18.64-9.25c15.2-8.89,51.76-30.18,59.86-34.84,13.05-7.6,40.79-23.8,50.9-29.75,6.52-3.8,19.07-11.18,27.96-16.34,20.72-12.12,22.15-12.98,23.94-15.41l1.51-2.01v-102.37c0-98.07-.07-102.37-1.29-104.31-1.36-2.01-4.59-4.23-14.84-10.04-2.94-1.65-13.91-8.03-24.37-14.12-20.57-12.12-73.05-42.65-94.99-55.34-7.46-4.3-20.07-11.69-28.03-16.34C183.38-1.16,183.59-1.09,178.5,1.28Zm9.39,14.84c4.37,2.65,12.12,7.17,26.09,15.34,4.52,2.58,14.55,8.46,22.22,12.9,7.67,4.52,16.92,9.82,20.43,11.83,15.27,8.82,35.13,20.29,44.45,25.81,5.52,3.23,13.91,8.17,18.64,10.9,4.73,2.8,14.19,8.32,21,12.33l12.33,7.31-.14,97.57-.22,97.64-10.39,6.17c-5.74,3.37-13.48,7.96-17.21,10.18-3.73,2.15-13.26,7.74-21.15,12.4s-14.48,8.53-14.7,8.6c-.22,.14-.29-42.22-.14-94.13,.14-51.97,0-95.78-.22-97.42-.29-1.72-1.22-4.01-2.22-5.16-.93-1.15-9.75-6.81-19.5-12.47-9.75-5.74-23.8-13.98-31.26-18.35-15.77-9.25-17.49-9.68-21.65-5.52l-2.44,2.44v57.49h-57.35V29.67l13.48-8.03c7.38-4.37,13.91-7.96,14.55-8.03,1.2,.4,3.01,1.08,5.38,2.51Zm-45.59,91.83c0,67.46,.07,70.9,1.36,72.62,2.58,3.58,2.44,3.58,40,3.58h35.34l2.29-2.08,2.37-2.08,.36-27.31,.36-27.31,6.45,3.8c8.89,5.3,29.32,17.28,38.14,22.44l7.31,4.23,.22,96.56c.07,53.19,.14,97.35,.14,98.21,.07,1.72,.29,1.51-21.08,13.98-5.74,3.37-12.62,7.38-15.41,9.03-2.72,1.58-7.31,4.3-10.11,6.02s-5.3,3.08-5.52,3.08c-.29,0-.5-30.25-.5-67.24,0-51.9-.22-67.53-.93-68.89-.43-.93-1.79-2.44-2.87-3.23-2.01-1.51-2.8-1.51-36.2-1.72-31.47-.14-34.41-.07-36.63,1.08-1.36,.72-3.15,2.15-3.94,3.23-1.36,1.86-1.36,2.94-1.22,27.46,.07,13.98,0,25.45-.29,25.45-.22,0-3.73-2.01-7.74-4.44-4.01-2.37-11.33-6.74-16.27-9.53-20-11.54-26.88-15.63-27.38-16.06-.29-.22-.57-45.74-.57-101.08l-.07-100.58,6.67-3.94c20.43-12.12,44.52-26.02,45.16-26.02,.29,0,.5,31.83,.57,70.76Zm-65.02,66.24c.14,91.69,.22,99.43,1.36,101.15,.65,1,4.37,3.66,8.24,5.95,13.55,8.03,23.66,13.91,40.36,23.66,19.21,11.26,20.57,11.69,24.52,7.67l2.37-2.29,.22-27.96,.22-27.96h57.28v68.1c0,.29-.29,68.1-.57,68.1-.36,0-6.81,3.73-14.41,8.24l-13.84,8.32-2.94-1.72c-1.65-.93-9.96-5.74-18.42-10.68s-34.41-20.07-57.71-33.55c-23.23-13.48-47.6-27.67-54.12-31.47-6.52-3.87-17.49-10.25-24.45-14.34l-12.62-7.31-.5-4.37c-.57-5.74-.43-182.59,.14-187.61l.5-3.87,31.9-18.78c17.56-10.32,31.97-18.71,32.12-18.64,.07,.07,.22,44.8,.36,99.36Z" style="fill: #fff;"/>
  <path d="M353.69,112.54l-.36,195.21-63.85,37.35-2.6-196.71-1.88-1.49-59.52-35.09-4.11-1.78-1.76-.43-.91-.07-.81,.06-1.01,.29-1.05,.59-4.27,61.51h-57.25l-.46-142.3,3.29-1.94,3.79-2.25,4.58-2.71,5.29-3.1,5.41-3.06,5.16-2.72,.7-.27" style="fill: #fff;"/>
  <path d="M182.23,13.69c.06-.02,.46-.44,.46-.44l4.51,1.82,138.94,80.46-2.08,2-112.22-38-29.61-45.83Z" style="fill: #fff;"/>
  <polygon points="285.89 315.03 288.23 346.36 295.56 345.09 293.56 313.69 285.89 315.03" style="fill: #fff;"/>
  <path d="M211.84,254.41c1.9,45.29,1.7,90.69-.57,136.21l-28.25,16.56L12.76,308.1l-.62-4.51-1.31-192.84,68.44-38.22,.67,187.33s.17,23.42-.44,19.78,1.56-7.33,1.56-7.33l11.83,8.5,32.83,13.72,15.67,9,8-6,2.67-45,59.78,1.88Z" style="fill: #fff;"/>
</svg>