<?xml version="1.0" encoding="UTF-8" standalone="no"?>
<!-- Created with Inkscape (http://www.inkscape.org/) -->

<svg
   version="1.1"
   id="svg1"
   width="256"
   height="256"
   viewBox="0 0 256 256"
   sodipodi:docname="STM32CubeMX.png"
   inkscape:export-filename="STM32CubeMX.svg"
   inkscape:export-xdpi="96"
   inkscape:export-ydpi="96"
   xmlns:inkscape="http://www.inkscape.org/namespaces/inkscape"
   xmlns:sodipodi="http://sodipodi.sourceforge.net/DTD/sodipodi-0.dtd"
   xmlns="http://www.w3.org/2000/svg"
   xmlns:svg="http://www.w3.org/2000/svg">
  <sodipodi:namedview
     id="namedview1"
     pagecolor="#ffffff"
     bordercolor="#000000"
     borderopacity="0.25"
     inkscape:showpageshadow="2"
     inkscape:pageopacity="0.0"
     inkscape:pagecheckerboard="0"
     inkscape:deskcolor="#d1d1d1"
     inkscape:export-bgcolor="#ffffff28"
     inkscape:zoom="2.3730469"
     inkscape:cx="103.4535"
     inkscape:cy="116.93827"
     inkscape:window-width="2560"
     inkscape:window-height="1417"
     inkscape:window-x="-8"
     inkscape:window-y="-8"
     inkscape:window-maximized="1"
     inkscape:current-layer="g1">
    <inkscape:page
       x="0"
       y="0"
       width="256"
       height="256"
       id="page2"
       margin="0"
       bleed="0" />
  </sodipodi:namedview>
  <defs
     id="defs1" />
  <g
     inkscape:groupmode="layer"
     inkscape:label="Image"
     id="g1"
     transform="translate(-1.0307724e-5,-0.42139915)">
    <g
       id="g2"
       transform="translate(-2.5283848,-0.84279835)">
      <path
         style="fill:#d0d0d0;fill-opacity:1"
         d="M 37.486501,120 37.5,68.5 53,68.461917 68.5,68.423835 53.258986,68.737265 38.017972,69.050695 37.745487,120.27535 37.473001,171.5 Z M 194.65451,68.75 C 194.90945,68.3375 200.26648,68 206.55902,68 212.85156,68 218,68.3375 218,68.75 c 0,0.4125 -5.35703,0.75 -11.90451,0.75 -6.54748,0 -11.69592,-0.3375 -11.44098,-0.75 z m -88.85703,-0.494755 c 4.56362,-0.185715 11.76362,-0.18468 16,0.0023 4.23639,0.186981 0.50252,0.33893 -8.29748,0.337664 -8.8,-0.0013 -12.26613,-0.15425 -7.70252,-0.339964 z m 45.99171,0.0033 c 3.45905,-0.19583 8.85905,-0.194213 12,0.0036 3.14094,0.197808 0.31081,0.358032 -6.28919,0.356055 -6.6,-0.002 -9.16987,-0.16382 -5.71081,-0.35965 z"
         id="path4" />
      <path
         style="fill:#39a9dc;fill-opacity:1"
         d="M 2.5283951,129.2642 V 1.2641975 H 130.5284 h 128 V 129.2642 v 128 h -128 H 2.5283951 Z m 57.2383929,4.79747 0.261607,-39.202522 8.391918,37.952522 c 4.615555,20.87389 8.6012,38.51503 8.856989,39.20253 0.321371,0.86377 3.058377,1.25 8.858082,1.25 4.616156,0 8.405581,-0.1125 8.420945,-0.25 0.01536,-0.1375 4.027895,-18.025 8.916741,-39.75 l 8.8888,-39.500002 0.0833,39.750002 0.0832,39.75 h 10.009 10.009 l -0.259,-51.75 -0.259,-51.750002 -15.75,-0.275393 c -8.6625,-0.151466 -15.75,-0.12371 -15.75,0.06168 0,0.5237 -14.007255,69.098285 -14.321881,70.114875 -0.153395,0.49564 -3.096215,-13.00436 -6.539599,-30 C 76.223535,92.669722 72.947266,76.626698 72.386323,74.014198 l -1.019898,-4.75 H 55.44741 39.528395 v 52.000002 52 h 9.988393 9.988392 z m 116.342832,23.1564 c 3.71747,-8.82537 7.07421,-16.24091 7.45943,-16.47899 0.38521,-0.23808 3.79615,6.97931 7.57987,16.03864 l 6.87948,16.47151 12.18183,0.007 12.18184,0.007 -12.56076,-25.75 c -6.90842,-14.1625 -12.56868,-26.2 -12.57836,-26.75 -0.01,-0.55 5.22335,-12.18103 11.62893,-25.846726 6.40559,-13.664728 11.64652,-25.041509 11.64652,-25.280765 0,-0.239256 -5.27405,-0.308231 -11.72012,-0.153276 l -11.72011,0.281735 -4.72598,12 c -2.59929,6.6 -5.45723,13.8 -6.35097,16 l -1.62499,4.000002 -6.38023,-16.000002 -6.38023,-16 -12.04969,-0.280787 -12.04969,-0.280787 2.38404,5.280787 c 1.31123,2.904433 6.55691,14.280787 11.65707,25.280787 5.10016,11.000002 9.27779,20.458602 9.28363,21.019112 0.006,0.56051 -5.65696,12.59801 -12.58398,26.75 l -12.59458,25.73089 h 11.83901 11.83901 z"
         id="path2" />
    </g>
  </g>
</svg>
