<?xml version="1.0" standalone="no"?><!DOCTYPE svg PUBLIC "-//W3C//DTD SVG 1.1//EN" "http://www.w3.org/Graphics/SVG/1.1/DTD/svg11.dtd"><svg t="1766933237239" class="icon" viewBox="0 0 1024 1024" version="1.1" xmlns="http://www.w3.org/2000/svg" p-id="24195" xmlns:xlink="http://www.w3.org/1999/xlink" width="200" height="200"><path d="M441.2416 74.9056l-256 49.7664A102.4 102.4 0 0 0 102.4 225.28v418.56a102.4 102.4 0 0 0 121.9584 100.5056l256-49.7664A102.4 102.4 0 0 0 563.2 593.92V175.4112a102.4 102.4 0 0 0-121.9584-100.5056z" fill="#5FDDDB" p-id="24196"></path><path d="M594.8416 177.3056l-256 49.7664A102.4 102.4 0 0 0 256 327.68v418.56a102.4 102.4 0 0 0 121.9584 100.5056l256-49.7664A102.4 102.4 0 0 0 716.8 696.32V277.8112a102.4 102.4 0 0 0-121.9584-100.5056z" fill="#F7B500" p-id="24197"></path><path d="M799.6416 279.7056l-256 49.7664A102.4 102.4 0 0 0 460.8 430.08v418.56a102.4 102.4 0 0 0 121.9584 100.5056l256-49.7664A102.4 102.4 0 0 0 921.6 798.72V380.2112a102.4 102.4 0 0 0-121.9584-100.5056z" fill="#5E7DFF" p-id="24198"></path></svg>