<?xml version="1.0" standalone="no"?><!DOCTYPE svg PUBLIC "-//W3C//DTD SVG 1.1//EN" "http://www.w3.org/Graphics/SVG/1.1/DTD/svg11.dtd"><svg t="1771686479585" class="icon" viewBox="0 0 1024 1024" version="1.1" xmlns="http://www.w3.org/2000/svg" p-id="11140" xmlns:xlink="http://www.w3.org/1999/xlink" width="200" height="200"><path d="M303.701333 284.330667l158.293334 158.293333a8.533333 8.533333 0 0 1 0 12.117333l-158.293334 158.293334a8.533333 8.533333 0 0 1-12.074666 0l-24.149334-24.106667a8.533333 8.533333 0 0 1 0-12.074667l122.154667-122.154666a8.533333 8.533333 0 0 0 0-12.074667L267.434667 320.512a8.533333 8.533333 0 0 1 0-12.074667l24.149333-24.106666a8.533333 8.533333 0 0 1 12.074667 0z" p-id="11141" fill="#bfbfbf"></path><path d="M784.469333 183.765333v255.744a8.533333 8.533333 0 0 1-8.533333 8.533334h-34.133333a8.533333 8.533333 0 0 1-8.533334-8.533334l-0.042666-204.544a8.533333 8.533333 0 0 0-8.533334-8.533333H184.448a8.533333 8.533333 0 0 0-8.533333 8.533333v545.621334c0 4.693333 3.84 8.533333 8.533333 8.533333h250.410667c4.693333 0 8.533333 3.84 8.533333 8.533333v34.133334a8.533333 8.533333 0 0 1-8.533333 8.533333h-301.653334a8.533333 8.533333 0 0 1-8.533333-8.533333V183.808c0-4.693333 3.84-8.533333 8.533333-8.533333h642.730667c4.693333 0 8.533333 3.84 8.533333 8.533333z" p-id="11142" fill="#bfbfbf"></path><path d="M557.568 575.274667v34.133333a8.533333 8.533333 0 0 1-8.533333 8.533333H425.898667a8.533333 8.533333 0 0 1-8.533334-8.533333v-34.133333c0-4.693333 3.84-8.533333 8.533334-8.533334h123.136c4.693333 0 8.533333 3.84 8.533333 8.533334zM893.269333 630.229333l-275.2 275.2a8.533333 8.533333 0 0 1-7.168 2.474667l-102.058666-13.312a8.533333 8.533333 0 0 1-7.381334-7.338667l-13.269333-102.101333a8.533333 8.533333 0 0 1 2.389333-7.125333l275.2-275.2a8.533333 8.533333 0 0 1 12.117334 0l115.370666 115.370666a8.533333 8.533333 0 0 1 0 12.032z m-72.405333-12.032l-42.965333-42.965333a8.533333 8.533333 0 0 0-12.074667 0l-221.184 221.184a8.533333 8.533333 0 0 0-2.432 7.125333l4.949333 37.973334a8.533333 8.533333 0 0 0 7.381334 7.381333l37.973333 4.949333a8.533333 8.533333 0 0 0 7.168-2.432l221.184-221.184a8.533333 8.533333 0 0 0 0-12.032z" p-id="11143" fill="#bfbfbf"></path></svg>