<?xml version="1.0" standalone="no"?><!DOCTYPE svg PUBLIC "-//W3C//DTD SVG 1.1//EN" "http://www.w3.org/Graphics/SVG/1.1/DTD/svg11.dtd"><svg t="1771043219102" class="icon" viewBox="0 0 1024 1024" version="1.1" xmlns="http://www.w3.org/2000/svg" p-id="3491" xmlns:xlink="http://www.w3.org/1999/xlink" width="200" height="200"><path d="M367.3 331.2c70.9 0 128.7-57.8 128.7-128.7 0-71-57.7-128.7-128.7-128.7-71 0-128.7 57.7-128.7 128.7 0 71.1 57.6 128.7 128.7 128.7z m0-218.3c49.4 0 89.6 40.2 89.6 89.6 0 49.4-40.2 89.6-89.6 89.6-49.4 0-89.6-40.2-89.6-89.6 0-49.3 40.2-89.6 89.6-89.6zM808 911.7H547.7c-9.9 0-17.9 8.1-17.9 17.9v3.4c0 9.9 8.1 17.9 17.9 17.9H808c9.9 0 17.9-8 17.9-17.9v-3.4c0-9.9-8.1-17.9-17.9-17.9zM850.4 516H581.1c-41.5-75.9-121.9-127.4-214-127.4-134.4 0-243.7 109.8-243.7 244.7 0 10.8 8.8 19.5 19.6 19.5h311.9v141.6c0 27.9 22.6 50.5 50.5 50.5h345c27.9 0 50.5-22.8 50.5-50.7V566.5c0-27.9-22.7-50.5-50.5-50.5z m-686.9 97.7c9.8-104.3 97.4-186 203.6-186 69.6 0 131.1 35 168.1 88.3h-29.8c-27.9 0-50.5 22.6-50.5 50.5v47.2H163.5z m407.4 0H494v-47.2c0-6.3 5-11.4 11.4-11.4h51.1c7.5 18.3 12.5 38 14.4 58.6z m290.9 180.5c0 6.4-5 11.4-11.4 11.4h-345c-6.3 0-11.4-5-11.4-11.4V652.8h97.4c10.8 0 19.5-8.8 19.5-19.5 0-27.3-4.5-53.6-12.8-78.1h252.2c6.4 0 11.4 5.1 11.4 11.4v227.6z" fill="#bfbfbf" p-id="3492"></path></svg>