<?xml version="1.0" standalone="no"?><!DOCTYPE svg PUBLIC "-//W3C//DTD SVG 1.1//EN" "http://www.w3.org/Graphics/SVG/1.1/DTD/svg11.dtd"><svg t="1769851223388" class="icon" viewBox="0 0 1024 1024" version="1.1" xmlns="http://www.w3.org/2000/svg" p-id="26688" xmlns:xlink="http://www.w3.org/1999/xlink" width="200" height="200"><path d="M841.6 275.5H77.3c-7.7 0-14 6.3-14 14.1v318.3c0 71.8 46.3 118.4 117.7 118.4h764.3c7.7 0 14-6.3 14-14.1V393.9c0-71.8-46.3-118.4-117.7-118.4" fill="#E84D1A" p-id="26689"></path><path d="M748.7 594.4c11.6 0 21.4-9.5 21.8-21.2 0.4-11.7-8.7-21.2-20.3-21.2-22.9 0-40.8-18.7-40-41.7v-0.1c0.8-23 20-41.7 42.9-41.7s40.8 18.7 40 41.7l-2.1 59.3c-0.4 11.7 8.7 21.2 20.3 21.2 11.6 0 21.4-9.5 21.8-21.2l2.1-59.3c1.6-46.4-34.5-84.1-80.6-84.1-46.1 0-84.9 38.6-86.5 85-1.6 46.5 34.4 83.3 80.6 83.3zM628.2 431.1c-11.6 0-21.5 9.5-22.1 21.2l-3.3 62.9v0.1c-1.2 23.1-13.3 41.7-36.2 41.7-22.9 0-33.1-18.7-31.8-41.7v-0.1l3.3-62.9c0.6-11.7-8.3-21.2-19.9-21.2-11.6 0-21.5 9.5-22.1 21.2l-3.3 62.9v0.1c-2.4 46.4 25.6 84.1 71.7 84.1 15.1 0 24.8-3.8 34.2-12.6v0.1c-1.2 23-21.3 33.8-44.2 33.8h-0.1c-11.6 0.1-21.4 9.5-22 21.2-0.6 11.6 8.3 21.1 19.9 21.2h0.1c46.1 0 86.4-28.2 88.8-74.6l7.1-136c0.4-11.9-8.5-21.4-20.1-21.4M451 431.1c-11.6 0-21.4 9.5-21.8 21.2l-2.2 62.9v0.1c-0.8 23.1-12.6 41.7-35.5 41.7s-33.3-18.7-32.6-41.7v-0.1l2.2-62.9c0.4-11.7-8.7-21.2-20.3-21.2-11.6 0-21.4 9.5-21.8 21.2l-2.2 62.9v0.1c-1.6 46.4 22.4 84.1 75 84.1 52.3 0 75.6-37.7 77.2-84.1v-0.1l2.2-62.9c0.5-11.7-8.6-21.2-20.2-21.2M176.8 402.2c0.4-11.7 10.2-21.2 21.8-21.2 11.6 0 20.7 9.5 20.3 21.2l-0.9 27.4h58.6c11.6 0 20.7 9.5 20.3 21.2-0.4 11.7-10.2 21.2-21.8 21.2h-58.6l-1.6 44.1c-0.8 23 16.2 41.7 39.1 41.7h22.6c11.6 0 20.7 9.5 20.3 21.2-0.4 11.7-10.2 21.2-21.8 21.2h-22.7c-46.1 0-81.3-37.7-79.7-84.1l1.6-44.1h-20.8c-11.6 0-20.7-9.5-20.3-21.2 0.4-11.7 10.2-21.2 21.8-21.2h20.8l1-27.4zM850 386.8c-13.1-9.8-30.5-11.5-45.3-4.6l-1.2 0.6v0.1c-6 3.6-8.5 11.4-5.5 17.9 3.2 7 11.5 10.1 18.5 6.9l0.4-0.2c5.5-2.3 11.8-1.6 16.6 1.9 4.8 3.5 7.3 9.5 6.7 15.4l1.3 0.2-1.4 0.3c-0.7 7.5 4.5 14.2 12 15.2 0.7 0.1 1.3 0.1 1.9 0.1 6.7 0 12.5-4.8 13.7-11.8v-0.4c2-16.1-4.8-32-17.7-41.6" fill="#FEFEFE" p-id="26690"></path><path d="M880.5 342.2c-26.5-19.5-61.4-22.8-91.3-8.8-7 3.3-10 11.6-6.7 18.6 1.6 3.4 4.4 6 7.9 7.2 3.5 1.3 7.3 1.1 10.7-0.5 20.5-9.7 44.7-7.4 63 6.1 18.3 13.4 27.9 35.9 24.9 58.5-0.5 3.7 0.5 7.4 2.8 10.4 2.3 2.9 5.6 4.9 9.3 5.3 0.6 0.1 1.2 0.1 1.8 0.1 6.9 0 12.9-5.1 13.7-12.2 4.2-32.8-9.6-65.3-36.1-84.7" fill="#FEFEFE" p-id="26691"></path></svg>