<?xml version="1.0" standalone="no"?><!DOCTYPE svg PUBLIC "-//W3C//DTD SVG 1.1//EN" "http://www.w3.org/Graphics/SVG/1.1/DTD/svg11.dtd"><svg t="1766933826365" class="icon" viewBox="0 0 1024 1024" version="1.1" xmlns="http://www.w3.org/2000/svg" p-id="41036" xmlns:xlink="http://www.w3.org/1999/xlink" width="200" height="200"><path d="M512 57.677643c-409.138579 0-409.138579 203.406863-409.138579 454.322357s0 454.322357 409.138579 454.322357 409.138579-203.406863 409.138579-454.322357 0-454.322357-409.138579-454.322357z" fill="#88B6FF" p-id="41037"></path><path d="M512.003549 254.821601c-134.397782 0-243.346412 0-243.346412 45.627453s108.948631 45.627452 243.346412 45.627452c134.388908 0 243.337539 0 243.337539-45.627452s-108.948631-45.627452-243.337539-45.627453z m-86.45435 211.552721c-86.649567 0-156.892062 0-156.892062 45.627453s70.242496 45.627452 156.892062 45.627452 156.892062 0 156.892063-45.627452-70.242496-45.627452-156.892063-45.627453z m-156.892062 257.177512c0-45.627452 43.213865-45.627452 96.51688-45.627453 53.303016 0 96.508007 0 96.508007 45.627453s-43.204991 45.627452-96.508007 45.627452c-53.303016 0-96.51688 0-96.51688-45.627452z" fill="#FFFFFF" p-id="41038"></path></svg>