<?xml version="1.0" standalone="no"?><!DOCTYPE svg PUBLIC "-//W3C//DTD SVG 1.1//EN" "http://www.w3.org/Graphics/SVG/1.1/DTD/svg11.dtd"><svg t="1766933697859" class="icon" viewBox="0 0 1024 1024" version="1.1" xmlns="http://www.w3.org/2000/svg" p-id="36659" xmlns:xlink="http://www.w3.org/1999/xlink" width="200" height="200"><path d="M819.2 169.984H288.256c-65.024 0-117.248 53.76-117.248 119.808v596.992c0 66.048 52.224 119.808 117.248 119.808H819.2c65.024 0 117.248-52.224 117.248-119.808V289.792c0-66.048-52.224-119.808-117.248-119.808z m-111.104 499.2H283.648c-7.68 0-12.288-5.12-12.288-12.288 0-7.68 5.12-12.288 12.288-12.288h424.448c6.144 0 12.288 5.12 12.288 12.288 0 7.68-4.608 12.288-12.288 12.288z m0-198.144H283.648c-7.68 0-12.288-5.12-12.288-12.288 0-7.68 5.12-12.288 12.288-12.288h424.448c6.144 0 12.288 5.12 12.288 12.288s-4.608 12.288-12.288 12.288z" fill="#2174f1" p-id="36660"></path><path d="M805.376 67.584H655.36V17.408c0-7.68-5.12-12.288-12.288-12.288-7.68 0-12.288 5.12-12.288 12.288v50.176H393.216V17.408c0-7.68-5.12-12.288-12.288-12.288C373.248 5.12 368.64 10.24 368.64 17.408v50.176H218.624c-79.872 0-143.36 65.024-143.36 144.896v660.48c0 79.872 63.488 144.896 143.36 144.896h588.288c78.848 0 143.36-65.024 143.36-144.896v-660.48c-1.024-79.872-65.024-144.896-144.896-144.896z m118.784 805.376c0 66.048-52.224 119.808-118.784 119.808H218.624c-65.024 0-118.784-53.76-118.784-119.808v-660.48c0-66.56 52.736-120.32 118.784-120.32h151.04v57.344c0 7.68 5.12 12.288 12.288 12.288 7.68 0 12.288-5.12 12.288-12.288V92.16h236.032v57.344c0 7.68 5.12 12.288 12.288 12.288 7.68 0 12.288-5.12 12.288-12.288V92.16h151.04c65.024 0 118.784 53.76 118.784 119.808v660.48h-0.512z" fill="#2174f1" p-id="36661"></path></svg>