<?xml version="1.0" standalone="no"?><!DOCTYPE svg PUBLIC "-//W3C//DTD SVG 1.1//EN" "http://www.w3.org/Graphics/SVG/1.1/DTD/svg11.dtd"><svg t="1769851349532" class="icon" viewBox="0 0 1167 1024" version="1.1" xmlns="http://www.w3.org/2000/svg" p-id="31815" xmlns:xlink="http://www.w3.org/1999/xlink" width="227.9296875" height="200"><path d="M673.792 794.624h61.44v-71.68h116.736v-55.296h-116.736V614.4h129.024v-55.296h-190.464v235.52z m225.28 2.048h57.344v-172.032h-57.344v172.032zM579.584 0zM962.56 438.272l59.392-73.728c-116.736-120.832-272.384-194.56-440.32-194.56s-323.584 81.92-440.32 194.56L198.656 430.08c102.4-96.256 235.52-161.792 380.928-161.792 147.456 0 278.528 65.536 382.976 169.984z m-32.768 106.496c-18.432 0-32.768 14.336-32.768 30.72s14.336 30.72 32.768 30.72c18.432 0 32.768-14.336 32.768-30.72s-14.336-30.72-32.768-30.72zM579.584 0C352.256 0 147.456 98.304 0 260.096l59.392 65.536C190.464 178.176 374.784 90.112 579.584 90.112c204.8 0 389.12 90.112 528.384 235.52l59.392-65.536C1013.76 98.304 806.912 0 579.584 0zM901.12 446.464h-65.536c-63.488-71.68-155.648-114.688-260.096-114.688s-196.608 45.056-260.096 114.688h-65.536c-98.304 0-178.176 79.872-178.176 178.176v108.544c0 98.304 79.872 178.176 178.176 178.176h65.536C378.88 978.944 471.04 1024 575.488 1024c102.4 0 196.608-45.056 260.096-114.688H901.12c98.304 0 178.176-79.872 178.176-178.176v-108.544c0-96.256-79.872-176.128-178.176-176.128zM372.736 796.672h-57.344l-24.576-145.408-24.576 145.408h-55.296L155.648 559.104h63.488l18.432 139.264 24.576-139.264h55.296l24.576 139.264 18.432-139.264h63.488l-51.2 237.568z m108.544-251.904c18.432 0 32.768 14.336 32.768 30.72s-14.336 30.72-32.768 30.72c-18.432 0-32.768-14.336-32.768-30.72s14.336-30.72 32.768-30.72z m-28.672 79.872h57.344v172.032h-57.344v-172.032z m587.776 106.496c0 75.776-63.488 139.264-139.264 139.264H497.664c53.248 0 77.824-61.44 77.824-139.264v-108.544c0-75.776 63.488-139.264 139.264-139.264H901.12c77.824 0 139.264 61.44 139.264 139.264v108.544z" fill="#d4237a" p-id="31816"></path></svg>